P3 4 4 10
0 0 0 2 2 2 4 4 4 6 6 6 
0 0 2 2 2 4 4 4 6 6 6 8
0 2 4 2 4 6 4 6 8 6 8 10
2 4 6 4 6 8 6 8 10 8 10 10 
